<svg width="282" height="87" xmlns="http://www.w3.org/2000/svg" xmlns:xlink="http://www.w3.org/1999/xlink" xml:space="preserve" overflow="hidden"><defs><linearGradient x1="-6.1334e-09" y1="46.0452" x2="259.149" y2="45.5824" gradientUnits="userSpaceOnUse" spreadMethod="pad" id="fill0"><stop offset="0" stop-color="#EC5F27"/><stop offset="0.2" stop-color="#AC8BEF"/><stop offset="0.77" stop-color="#0003F7"/><stop offset="0.875" stop-color="#C97AEA"/><stop offset="1" stop-color="#5500FF"/></linearGradient><linearGradient x1="3.23323" y1="42.4994" x2="261.231" y2="43.5" gradientUnits="userSpaceOnUse" spreadMethod="pad" id="fill1"><stop offset="0" stop-color="#EC5F27"/><stop offset="0.2" stop-color="#AC8BEF"/><stop offset="0.77" stop-color="#0003F7"/><stop offset="0.875" stop-color="#C97AEA"/><stop offset="1" stop-color="#5500FF"/></linearGradient><linearGradient x1="4.1649" y1="45.5829" x2="259.843" y2="46.7398" gradientUnits="userSpaceOnUse" spreadMethod="pad" id="fill2"><stop offset="0" stop-color="#EC5F27"/><stop offset="0.2" stop-color="#AC8BEF"/><stop offset="0.77" stop-color="#0003F7"/><stop offset="0.875" stop-color="#C97AEA"/><stop offset="1" stop-color="#5500FF"/></linearGradient></defs><g transform="translate(-471 -44)"><path d="M9.77362 61.5479C8.55192 61.5479 7.42277 61.2517 6.38617 60.6594 5.3866 60.067 4.59064 59.2711 3.9983 58.2715 3.40596 57.2349 3.10979 56.1057 3.10979 54.884L3.10979 28.2287C3.10979 27.007 3.40596 25.8964 3.9983 24.8968 4.59064 23.8602 5.3866 23.0457 6.38617 22.4534 7.42277 21.8611 8.55192 21.5649 9.77362 21.5649L42.9817 21.5649 42.9817 26.063 9.77362 26.063C9.18128 26.063 8.66298 26.2851 8.21872 26.7294 7.81149 27.1366 7.60787 27.6364 7.60787 28.2287L7.60787 54.884C7.60787 55.4764 7.81149 55.9947 8.21872 56.4389 8.66298 56.8462 9.18128 57.0498 9.77362 57.0498L42.9817 57.0498 42.9817 61.5479 9.77362 61.5479ZM53.6216 61.5479C52.6035 61.5479 51.6627 61.3012 50.7987 60.8074 49.9658 60.2831 49.2869 59.6043 48.7626 58.7713 48.2688 57.9073 48.0222 56.9665 48.0222 55.9484L48.0222 40.3069C48.0222 39.2888 48.2688 38.3633 48.7626 37.5303 49.2869 36.6665 49.9658 35.9878 50.7987 35.4941 51.6627 34.9697 52.6035 34.7074 53.6216 34.7074L69.7259 34.7074C70.775 34.7074 71.7158 34.9697 72.5487 35.4941 73.4127 35.9878 74.0911 36.6665 74.5849 37.5303 75.1092 38.3633 75.3716 39.2888 75.3716 40.3069L75.3716 55.9484C75.3716 56.9665 75.1092 57.9073 74.5849 58.7713 74.0911 59.6043 73.4127 60.2831 72.5487 60.8074 71.7158 61.3012 70.775 61.5479 69.7259 61.5479L53.6216 61.5479ZM53.6216 57.7532 69.7259 57.7532C70.2196 57.7532 70.6361 57.5834 70.9753 57.2441 71.3456 56.8739 71.5307 56.4422 71.5307 55.9484L71.5307 40.3069C71.5307 39.8133 71.3456 39.3968 70.9753 39.0574 70.6361 38.6872 70.2196 38.5021 69.7259 38.5021L53.6216 38.5021C53.1278 38.5021 52.6961 38.6872 52.3259 39.0574 51.9867 39.3968 51.8168 39.8133 51.8168 40.3069L51.8168 55.9484C51.8168 56.4422 51.9867 56.8739 52.3259 57.2441 52.6961 57.5834 53.1278 57.7532 53.6216 57.7532ZM84.4131 61.5479C83.3641 61.5479 82.408 61.3012 81.544 60.8074 80.711 60.2831 80.0321 59.6043 79.5078 58.7713 79.014 57.9073 78.7674 56.9665 78.7674 55.9484L78.7674 40.3069C78.7674 39.2888 79.014 38.3633 79.5078 37.5303 80.0321 36.6665 80.711 35.9878 81.544 35.4941 82.408 34.9697 83.3641 34.7074 84.4131 34.7074L102.322 34.7074 102.322 25.9149 106.117 25.9149 106.117 61.5479 84.4131 61.5479ZM84.4131 57.7532 100.517 57.7532C101.011 57.7532 101.428 57.5834 101.767 57.2441 102.137 56.8739 102.322 56.4422 102.322 55.9484L102.322 40.3069C102.322 39.8133 102.137 39.3968 101.767 39.0574 101.428 38.6872 101.011 38.5021 100.517 38.5021L84.4131 38.5021C83.9194 38.5021 83.4876 38.6872 83.1174 39.0574 82.7782 39.3968 82.6084 39.8133 82.6084 40.3069L82.6084 55.9484C82.6084 56.4422 82.7782 56.8739 83.1174 57.2441 83.4876 57.5834 83.9194 57.7532 84.4131 57.7532ZM115.625 61.5479C114.607 61.5479 113.666 61.3012 112.802 60.8074 111.969 60.2831 111.291 59.6043 110.766 58.7713 110.272 57.9073 110.025 56.9665 110.025 55.9484L110.025 40.3069C110.025 39.2888 110.272 38.3633 110.766 37.5303 111.291 36.6665 111.969 35.9878 112.802 35.4941 113.666 34.9697 114.607 34.7074 115.625 34.7074L131.729 34.7074C132.778 34.7074 133.719 34.9697 134.552 35.4941 135.416 35.9878 136.095 36.6665 136.588 37.5303 137.113 38.3633 137.375 39.2888 137.375 40.3069L137.375 50.025 113.82 50.025 113.82 55.9484C113.82 56.4422 113.99 56.8739 114.329 57.2441 114.699 57.5834 115.132 57.7532 115.625 57.7532L137.375 57.7532 137.375 61.5479 115.625 61.5479ZM113.82 46.2303 133.534 46.2303 133.534 40.3069C133.534 39.8133 133.349 39.3968 132.979 39.0574 132.639 38.6872 132.223 38.5021 131.729 38.5021L115.625 38.5021C115.132 38.5021 114.699 38.6872 114.329 39.0574 113.99 39.3968 113.82 39.8133 113.82 40.3069L113.82 46.2303ZM142.872 61.5479 142.872 21.5094 147.37 21.5094 147.37 57.0498 182.855 57.0498 182.855 61.5479 142.872 61.5479ZM185.389 61.5479 185.389 34.7074 189.183 34.7074 189.183 61.5479 185.389 61.5479ZM185.389 29.7096 185.389 25.9149 189.183 25.9149 189.183 29.7096 185.389 29.7096ZM194.429 61.5479 194.429 34.7074 216.179 34.7074C217.197 34.7074 218.123 34.9697 218.956 35.4941 219.82 35.9878 220.498 36.6665 220.992 37.5303 221.516 38.3633 221.779 39.2888 221.779 40.3069L221.779 61.5479 217.984 61.5479 217.984 40.3069C217.984 39.8133 217.799 39.3968 217.429 39.0574 217.09 38.6872 216.673 38.5021 216.179 38.5021L200.075 38.5021C199.581 38.5021 199.149 38.6872 198.779 39.0574 198.409 39.3968 198.224 39.8133 198.224 40.3069L198.224 61.5479 194.429 61.5479Z" fill="url(#fill0)" transform="matrix(1.00392 0 0 1 471 44)"/><path d="M227.635 70.3404 227.635 67.7721 246.446 45.3511 227.635 22.9301 227.635 20.3617 237.561 20.3617 252.555 38.1319 267.409 20.3617 277.405 20.3617 277.405 22.9301 258.524 45.3511 277.405 67.7027 277.405 70.3404 267.409 70.3404 252.485 52.6396 237.561 70.3404 227.635 70.3404Z" fill="url(#fill1)" transform="matrix(1.00392 0 0 1 471 44)"/><path d="M224.904 68.4894C211.021 73.3484 68.5278 79.6087 0 81.6426L133.64 81.6426C133.64 81.6426 214.393 78.6378 224.515 75.7761 234.637 72.9148 237.63 70.3404 237.63 70.3404L229.532 66.4069 224.904 68.4894Z" fill="url(#fill2)" transform="matrix(1.00392 0 0 1 471 44)"/></g></svg>